<svg width="11" height="104" viewBox="0 0 11 104" fill="none" xmlns="http://www.w3.org/2000/svg">
<path d="M7.1999 99.549V95.4716C8.7999 95.6807 9.7999 96.8307 9.7999 98.6081C9.7999 100.804 8.2999 102.163 5.9999 102.163C3.6999 102.163 2.1999 100.804 2.1999 98.7126C2.1999 96.8307 3.2999 95.5761 4.9999 95.4716H5.0999L4.9999 94.0079H4.8999C2.3999 94.217 0.899902 95.8898 0.899902 98.7126C0.999902 101.535 3.0999 103.626 5.9999 103.626C8.8999 103.626 10.9999 101.64 10.9999 98.7126C10.9999 97.1444 10.3999 95.8898 9.3999 95.367H10.7999V94.0079H5.9999V99.549H7.1999Z" fill="white"/>
<path d="M8.4999 84.5984C7.3999 84.7029 6.6999 85.2257 6.3999 86.2712C6.1999 85.2257 5.4999 84.2847 3.9999 84.2847C2.1999 84.2847 1.0999 85.6439 1.0999 88.0485V92.126H10.7999V90.6623H6.9999V87.944C6.9999 86.7939 7.5999 86.1666 8.6999 86.0621C9.7999 85.9575 10.4999 85.853 10.7999 85.6439V84.0756L10.6999 84.1802C10.3999 84.3893 9.7999 84.4938 8.4999 84.5984ZM2.3999 90.6623V88.1531C2.3999 86.5848 2.9999 85.7484 4.0999 85.7484C5.2999 85.7484 5.7999 86.4803 5.7999 88.1531V90.6623H2.3999Z" fill="white"/>
<path d="M0.999902 78.1163C0.999902 81.0437 3.0999 83.1347 5.9999 83.1347C8.8999 83.1347 10.9999 81.0437 10.9999 78.1163C10.9999 75.1889 8.8999 73.0979 5.9999 73.0979C3.0999 73.0979 0.999902 75.1889 0.999902 78.1163ZM9.7999 78.1163C9.7999 80.2073 8.2999 81.5664 5.9999 81.5664C3.6999 81.5664 2.1999 80.2073 2.1999 78.1163C2.1999 76.0253 3.6999 74.6661 5.9999 74.6661C8.2999 74.6661 9.7999 76.0253 9.7999 78.1163Z" fill="white"/>
<path d="M7.1999 65.0475C8.8999 65.0475 9.7999 65.9885 9.7999 67.6613C9.7999 69.4386 8.8999 70.275 7.1999 70.275H1.1999V71.7387H7.0999C9.5999 71.7387 10.9999 70.275 10.9999 67.6613C10.9999 64.1066 8.5999 63.5838 7.0999 63.5838H1.1999V65.0475H7.1999Z" fill="white"/>
<path d="M8.2999 54.8016L1.1999 60.1337V61.7019H10.7999V60.3428H3.2999L10.7999 54.5925V53.4425H1.1999V54.8016H8.2999Z" fill="white"/>
<path d="M1.1999 47.7968V51.456H10.8999V47.7968C10.8999 44.5557 9.0999 42.6738 6.0999 42.6738C2.9999 42.6738 1.1999 44.6603 1.1999 47.7968ZM2.3999 49.9923V47.9013C2.3999 45.6012 3.6999 44.2421 5.9999 44.2421C8.2999 44.2421 9.5999 45.6012 9.5999 47.9013V49.9923H2.3999Z" fill="white"/>
<path d="M2.2999 36.6099C2.2999 34.728 3.4999 33.4734 5.2999 33.3689H5.3999L5.2999 31.9052H5.1999C2.5999 32.1143 0.999902 33.8916 0.999902 36.6099C0.999902 39.4328 3.0999 41.5238 5.9999 41.5238C8.8999 41.5238 10.9999 39.4328 10.9999 36.6099C10.9999 33.8916 9.3999 32.1143 6.7999 31.9052H6.6999L6.5999 33.3689H6.6999C8.5999 33.4734 9.6999 34.728 9.6999 36.6099C9.6999 38.5964 8.1999 40.0601 5.8999 40.0601C3.7999 40.0601 2.2999 38.7009 2.2999 36.6099Z" fill="white"/>
<path d="M8.4999 22.9139C7.3999 23.0184 6.6999 23.5412 6.3999 24.5867C6.1999 23.5412 5.4999 22.6003 3.9999 22.6003C2.1999 22.6003 1.0999 23.9594 1.0999 26.364V30.4415H10.7999V28.9778H6.9999V26.2595C6.9999 25.1094 7.5999 24.4821 8.6999 24.3776C9.7999 24.2731 10.4999 24.1685 10.7999 23.9594V22.3911L10.6999 22.4957C10.3999 22.7048 9.7999 22.8093 8.4999 22.9139ZM2.3999 28.9778V26.4686C2.3999 24.9004 2.9999 24.0639 4.0999 24.0639C5.2999 24.0639 5.7999 24.7958 5.7999 26.4686V28.9778H2.3999Z" fill="white"/>
<path d="M6.4999 19.4638V15.0727H5.2999V19.4638H2.3999V13.9226H1.1999V20.9275H10.7999V13.7135H9.5999V19.4638H6.4999Z" fill="white"/>
<path d="M1.1999 1.58571L8.9999 3.57216L1.1999 5.76771V7.12686L8.9999 9.32241L1.1999 11.3089V12.7726L10.7999 10.2634V8.59056L3.2999 6.49956L10.7999 4.40856V2.73576L1.1999 0.122009V1.58571Z" fill="white"/>
</svg>
