<svg width="104" height="11" viewBox="0 0 104 11" fill="none" xmlns="http://www.w3.org/2000/svg">
<path d="M4.27514 7.12421L8.35259 7.12421C8.14349 8.72421 6.99344 9.72422 5.21609 9.72422C3.02054 9.72421 1.66139 8.22421 1.66139 5.92421C1.66139 3.62421 3.02054 2.12421 5.11154 2.12421C6.99344 2.12421 8.24804 3.22421 8.35259 4.92421L8.35259 5.02421L9.81628 4.92421L9.81628 4.82421C9.60718 2.32421 7.93439 0.824215 5.11154 0.824214C2.28869 0.924214 0.197692 3.02421 0.197691 5.92421C0.197691 8.82421 2.18414 10.9242 5.11154 10.9242C6.67979 10.9242 7.93439 10.3242 8.45714 9.32421L8.45714 10.7242L9.81628 10.7242L9.81628 5.92421L4.27514 5.92421L4.27514 7.12421Z" fill="#181818"/>
<path d="M19.2258 8.42421C19.1212 7.32421 18.5985 6.62422 17.553 6.32421C18.5985 6.12422 19.5394 5.42422 19.5394 3.92422C19.5394 2.12422 18.1803 1.02422 15.7756 1.02421L11.6982 1.02421L11.6982 10.7242L13.1619 10.7242L13.1619 6.92421L15.8802 6.92421C17.0302 6.92421 17.6575 7.52421 17.7621 8.62421C17.8666 9.72421 17.9712 10.4242 18.1803 10.7242L19.7485 10.7242L19.644 10.6242C19.4349 10.3242 19.3303 9.72421 19.2258 8.42421ZM13.1619 2.32421L15.6711 2.32421C17.2393 2.32421 18.0757 2.92422 18.0757 4.02422C18.0757 5.22422 17.3439 5.72422 15.6711 5.72421L13.1619 5.72421L13.1619 2.32421Z" fill="#181818"/>
<path d="M25.7079 0.924215C22.7805 0.924215 20.6895 3.02421 20.6895 5.92422C20.6895 8.82422 22.7805 10.9242 25.7079 10.9242C28.6353 10.9242 30.7263 8.82422 30.7263 5.92422C30.7263 3.02422 28.6353 0.924215 25.7079 0.924215ZM25.7079 9.72422C23.6169 9.72422 22.2577 8.22422 22.2577 5.92422C22.2577 3.62422 23.6169 2.12422 25.7079 2.12422C27.7989 2.12422 29.158 3.62422 29.158 5.92422C29.158 8.22422 27.7989 9.72422 25.7079 9.72422Z" fill="#181818"/>
<path d="M38.7766 7.12422C38.7766 8.82422 37.8357 9.72422 36.1629 9.72422C34.3855 9.72422 33.5491 8.82422 33.5491 7.12422L33.5491 1.12422L32.0854 1.12422L32.0854 7.02422C32.0854 9.52422 33.5491 10.9242 36.1629 10.9242C39.7176 10.9242 40.2403 8.52422 40.2403 7.02422L40.2403 1.12422L38.7766 1.12422L38.7766 7.12422Z" fill="#181818"/>
<path d="M49.0225 8.22422L43.6905 1.12422L42.1222 1.12422L42.1222 10.7242L43.4814 10.7242L43.4814 3.22422L49.2316 10.7242L50.3817 10.7242L50.3817 1.12422L49.0225 1.12422L49.0225 8.22422Z" fill="#181818"/>
<path d="M56.0274 1.12422L52.3681 1.12422L52.3681 10.8242L56.0274 10.8242C59.2684 10.8242 61.1503 9.02422 61.1503 6.02422C61.1503 2.92422 59.1639 1.12422 56.0274 1.12422ZM53.8318 2.32422L55.9228 2.32422C58.2229 2.32422 59.5821 3.62422 59.5821 5.92422C59.5821 8.22422 58.2229 9.52422 55.9228 9.52422L53.8318 9.52422L53.8318 2.32422Z" fill="#181818"/>
<path d="M67.2142 2.22422C69.0961 2.22422 70.3507 3.42422 70.4553 5.22422L70.4553 5.32422L71.919 5.22422L71.919 5.12422C71.7099 2.52422 69.9325 0.924217 67.2142 0.924217C64.3914 0.924217 62.3004 3.02422 62.3004 5.92422C62.3004 8.82422 64.3914 10.9242 67.2142 10.9242C69.9325 10.9242 71.7099 9.32422 71.919 6.72422L71.919 6.62422L70.4553 6.52422L70.4553 6.62422C70.3507 8.52422 69.0961 9.62422 67.2142 9.62422C65.2278 9.62422 63.7641 8.12422 63.7641 5.82422C63.7641 3.72422 65.1232 2.22422 67.2142 2.22422Z" fill="#181818"/>
<path d="M80.9103 8.42422C80.8057 7.32422 80.283 6.62422 79.2375 6.32422C80.283 6.12422 81.2239 5.42422 81.2239 3.92422C81.2239 2.12422 79.8648 1.02422 77.4601 1.02422L73.3827 1.02422L73.3827 10.7242L74.8464 10.7242L74.8464 6.92422L77.5647 6.92422C78.7147 6.92422 79.342 7.52422 79.4466 8.62422C79.5511 9.72422 79.6557 10.4242 79.8648 10.7242L81.433 10.7242L81.3285 10.6242C81.1194 10.3242 81.0148 9.72422 80.9103 8.42422ZM74.8464 2.32422L77.3556 2.32422C78.9238 2.32422 79.7602 2.92422 79.7602 4.02422C79.7602 5.22422 79.0284 5.72422 77.3556 5.72422L74.8464 5.72422L74.8464 2.32422Z" fill="#181818"/>
<path d="M84.3604 6.42422L88.7515 6.42422L88.7515 5.22422L84.3604 5.22422L84.3604 2.32422L89.9016 2.32422L89.9016 1.12422L82.8967 1.12422L82.8967 10.7242L90.1107 10.7242L90.1107 9.52422L84.3604 9.52422L84.3604 6.42422Z" fill="#181818"/>
<path d="M102.238 1.12422L100.252 8.92422L98.0565 1.12422L96.6973 1.12422L94.5018 8.92422L92.5153 1.12422L91.0516 1.12422L93.5608 10.7242L95.2336 10.7242L97.3246 3.22422L99.4156 10.7242L101.088 10.7242L103.702 1.12422L102.238 1.12422Z" fill="#181818"/>
</svg>
